<svg width="200" height="200" viewBox="0 0 200 200" fill="none" xmlns="http://www.w3.org/2000/svg">
<g clip-path="url(#clip0_214_2)">
<path d="M99.0174 5.20199C99.2225 4.11614 100.778 4.11614 100.983 5.20199L111.131 58.9292C111.283 59.7311 112.279 60.0237 112.84 59.431L150.425 19.7196C151.185 18.917 152.493 19.7577 152.078 20.7821L131.569 71.4671C131.263 72.2236 131.943 73.0085 132.735 72.8131L185.823 59.7257C186.896 59.4612 187.542 60.8757 186.639 61.5133L141.983 93.064C141.317 93.5349 141.465 94.5629 142.237 94.8269L193.973 112.519C195.019 112.876 194.797 114.415 193.693 114.464L139.069 116.863C138.253 116.899 137.822 117.844 138.329 118.483L172.287 161.337C172.973 162.203 171.955 163.378 171 162.822L123.75 135.308C123.045 134.898 122.171 135.459 122.251 136.271L127.65 190.681C127.76 191.781 126.268 192.219 125.765 191.235L100.891 142.543C100.519 141.816 99.4807 141.816 99.1095 142.543L74.2351 191.235C73.7324 192.219 72.2404 191.781 72.3495 190.681L77.7486 136.271C77.8291 135.459 76.9555 134.898 76.2502 135.308L28.9999 162.822C28.045 163.378 27.0266 162.203 27.713 161.337L61.6713 118.483C62.1781 117.844 61.7467 116.899 60.9314 116.863L6.30674 114.464C5.20275 114.415 4.98145 112.876 6.02706 112.519L57.7631 94.8269C58.5353 94.5629 58.6831 93.5349 58.0166 93.064L13.3605 61.5133C12.458 60.8757 13.104 59.4612 14.1769 59.7257L67.2648 72.8131C68.0572 73.0085 68.7373 72.2236 68.4312 71.4671L47.9217 20.7821C47.5072 19.7577 48.8154 18.917 49.575 19.7196L87.1597 59.431C87.7207 60.0237 88.7172 59.7311 88.8686 58.9292L99.0174 5.20199Z" fill="#0000FF"/>
<path d="M137 117C137.552 117 138.001 116.552 137.987 116C137.731 106.284 133.76 97.0203 126.87 90.1299C119.744 83.0036 110.078 79 100 79C89.9218 79 80.2563 83.0036 73.1299 90.1299C66.2396 97.0203 62.2686 106.284 62.0131 116C61.9986 116.552 62.4477 117 63 117L100 117H137Z" fill="#FFFF00"/>
</g>
<defs>
<clipPath id="clip0_214_2">
<rect width="200" height="200" fill="white"/>
</clipPath>
</defs>
</svg>
